<svg data-v-423bf9ae="" xmlns="http://www.w3.org/2000/svg" viewBox="30 0 50 92"
     class="iconLeftSlogan"><!----><!----><!----><!---->
    <g data-v-423bf9ae="" id="ab5baa7d-8d3f-4596-810c-404bf6e4ff3d"
       transform="matrix(1.939781254000451,0,0,1.939781254000451,-46.03935939529454,-51.18613689021589)" stroke="none"
       fill="white">
        <path d="M24.48 51.01l30.63 21.95c.39.28.9.31 1.32.1.42-.22.69-.65.69-1.13V57.08h12.14c.7 0 1.27-.57 1.27-1.27 0-.7-.57-1.27-1.27-1.27H57.11v-3.28h17.67c.7 0 1.27-.57 1.27-1.27 0-.7-.57-1.27-1.27-1.27H57.11v-3.28h12.14c.7 0 1.27-.57 1.27-1.27s-.57-1.27-1.27-1.27H57.11V28.07a1.276 1.276 0 0 0-1.27-1.27c-.26 0-.52.08-.74.24l-30.63 21.9c-.33.24-.53.62-.53 1.03s.21.8.54 1.04zm30.1-20.47v12.37h-7.25c-.7 0-1.27.57-1.27 1.27s.57 1.27 1.27 1.27h7.25v3.28H41.8c-.7 0-1.27.57-1.27 1.27 0 .7.57 1.27 1.27 1.27h12.78v3.28h-7.25c-.7 0-1.27.57-1.27 1.27 0 .7.57 1.27 1.27 1.27h7.25v12.37L27.4 49.98l27.18-19.44z"></path>
    </g><!---->
</svg>
